<?xml version="1.0" encoding="UTF-8" standalone="no"?>
<!DOCTYPE svg PUBLIC "-//W3C//DTD SVG 1.1//EN"
 "http://www.w3.org/Graphics/SVG/1.1/DTD/svg11.dtd">
<!-- Generated by graphviz version 2.47.3 (20210619.1520)
 -->
<!-- Title: dependencies Pages: 1 -->
<svg width="402pt" height="182pt"
 viewBox="0.00 0.00 402.00 181.80" xmlns="http://www.w3.org/2000/svg" xmlns:xlink="http://www.w3.org/1999/xlink">
<g id="graph0" class="graph" transform="scale(1 1) rotate(0) translate(4 177.8)">
<title>dependencies</title>
<polygon fill="white" stroke="transparent" points="-4,4 -4,-177.8 398,-177.8 398,4 -4,4"/>
<text text-anchor="middle" x="197" y="-8.2" font-family="sans-serif" font-size="14.00">dependencies</text>
<g id="clust1" class="cluster">
<title>cluster_HaloDotApiModule</title>
<polygon fill="none" stroke="black" stroke-dasharray="1,5" points="8,-32.8 8,-165.8 386,-165.8 386,-32.8 8,-32.8"/>
</g>
<g id="clust3" class="cluster">
<title>cluster_HaloDotApiModule_imports</title>
<polygon fill="none" stroke="black" points="216,-40.8 216,-157.8 378,-157.8 378,-40.8 216,-40.8"/>
</g>
<g id="clust6" class="cluster">
<title>cluster_HaloDotApiModule_providers</title>
<polygon fill="none" stroke="black" points="16,-40.8 16,-92.8 208,-92.8 208,-40.8 16,-40.8"/>
</g>
<!-- HaloDotApiModule -->
<g id="node1" class="node">
<title>HaloDotApiModule</title>
<polygon fill="#8dd3c7" stroke="black" points="352.26,-149.8 349.26,-153.8 328.26,-153.8 325.26,-149.8 223.74,-149.8 223.74,-113.8 352.26,-113.8 352.26,-149.8"/>
<text text-anchor="middle" x="288" y="-127.6" font-family="Times,serif" font-size="14.00">HaloDotApiModule</text>
</g>
<!-- HaloDotApiModule&#45;&gt;HaloDotApiModule -->
<g id="edge1" class="edge">
<title>HaloDotApiModule&#45;&gt;HaloDotApiModule</title>
<path fill="none" stroke="black" d="M228.68,-113.56C228.68,-106.37 228.68,-99.8 228.68,-99.8 228.68,-99.8 211.68,-99.8 211.68,-99.8 211.68,-99.8 211.68,-167.8 211.68,-167.8 211.68,-167.8 288,-167.8 288,-167.8 288,-167.8 288,-160.22 288,-160.22"/>
<polygon fill="black" stroke="black" points="291.5,-160.22 288,-150.22 284.5,-160.22 291.5,-160.22"/>
</g>
<!-- SharedModule -->
<g id="node2" class="node">
<title>SharedModule</title>
<polygon fill="#8dd3c7" stroke="black" points="337.42,-84.8 334.42,-88.8 313.42,-88.8 310.42,-84.8 238.58,-84.8 238.58,-48.8 337.42,-48.8 337.42,-84.8"/>
<text text-anchor="middle" x="288" y="-62.6" font-family="Times,serif" font-size="14.00">SharedModule</text>
</g>
<!-- SharedModule&#45;&gt;HaloDotApiModule -->
<g id="edge2" class="edge">
<title>SharedModule&#45;&gt;HaloDotApiModule</title>
<path fill="none" stroke="black" d="M288,-84.91C288,-84.91 288,-103.79 288,-103.79"/>
<polygon fill="black" stroke="black" points="284.5,-103.79 288,-113.79 291.5,-103.79 284.5,-103.79"/>
</g>
<!-- HaloDotApiService -->
<g id="node3" class="node">
<title>HaloDotApiService</title>
<ellipse fill="#fdb462" stroke="black" cx="112" cy="-66.8" rx="87.96" ry="18"/>
<text text-anchor="middle" x="112" y="-62.6" font-family="Times,serif" font-size="14.00">HaloDotApiService</text>
</g>
<!-- HaloDotApiService&#45;&gt;HaloDotApiModule -->
<g id="edge3" class="edge">
<title>HaloDotApiService&#45;&gt;HaloDotApiModule</title>
<path fill="none" stroke="black" d="M199.82,-66.8C219.02,-66.8 233.73,-66.8 233.73,-66.8 233.73,-66.8 233.73,-103.69 233.73,-103.69"/>
<polygon fill="black" stroke="black" points="230.23,-103.69 233.73,-113.69 237.23,-103.69 230.23,-103.69"/>
</g>
</g>
</svg>
