<?xml version="1.0" encoding="UTF-8" standalone="no"?>
<!DOCTYPE svg PUBLIC "-//W3C//DTD SVG 1.1//EN"
 "http://www.w3.org/Graphics/SVG/1.1/DTD/svg11.dtd">
<!-- Generated by graphviz version 2.47.3 (20210619.1520)
 -->
<!-- Title: dependencies Pages: 1 -->
<svg width="721pt" height="247pt"
 viewBox="0.00 0.00 721.00 246.80" xmlns="http://www.w3.org/2000/svg" xmlns:xlink="http://www.w3.org/1999/xlink">
<g id="graph0" class="graph" transform="scale(1 1) rotate(0) translate(4 242.8)">
<title>dependencies</title>
<polygon fill="white" stroke="transparent" points="-4,4 -4,-242.8 717,-242.8 717,4 -4,4"/>
<text text-anchor="middle" x="356.5" y="-8.2" font-family="sans-serif" font-size="14.00">dependencies</text>
<g id="clust1" class="cluster">
<title>cluster_SharedModule</title>
<polygon fill="none" stroke="black" stroke-dasharray="1,5" points="8,-32.8 8,-230.8 705,-230.8 705,-32.8 8,-32.8"/>
</g>
<g id="clust6" class="cluster">
<title>cluster_SharedModule_providers</title>
<polygon fill="none" stroke="black" points="40,-40.8 40,-92.8 673,-92.8 673,-40.8 40,-40.8"/>
</g>
<g id="clust4" class="cluster">
<title>cluster_SharedModule_exports</title>
<polygon fill="none" stroke="black" points="16,-170.8 16,-222.8 697,-222.8 697,-170.8 16,-170.8"/>
</g>
<!-- DiscordCommandProvider  -->
<g id="node1" class="node">
<title>DiscordCommandProvider </title>
<polygon fill="#fb8072" stroke="black" points="689.36,-214.8 518.64,-214.8 518.64,-178.8 689.36,-178.8 689.36,-214.8"/>
<text text-anchor="middle" x="604" y="-192.6" font-family="Times,serif" font-size="14.00">DiscordCommandProvider </text>
</g>
<!-- HaloDotApiService  -->
<g id="node2" class="node">
<title>HaloDotApiService </title>
<polygon fill="#fb8072" stroke="black" points="500.18,-214.8 369.82,-214.8 369.82,-178.8 500.18,-178.8 500.18,-214.8"/>
<text text-anchor="middle" x="435" y="-192.6" font-family="Times,serif" font-size="14.00">HaloDotApiService </text>
</g>
<!-- PrismaService  -->
<g id="node3" class="node">
<title>PrismaService </title>
<polygon fill="#fb8072" stroke="black" points="351.36,-214.8 250.64,-214.8 250.64,-178.8 351.36,-178.8 351.36,-214.8"/>
<text text-anchor="middle" x="301" y="-192.6" font-family="Times,serif" font-size="14.00">PrismaService </text>
</g>
<!-- TwitterService  -->
<g id="node4" class="node">
<title>TwitterService </title>
<polygon fill="#fb8072" stroke="black" points="232.18,-214.8 129.82,-214.8 129.82,-178.8 232.18,-178.8 232.18,-214.8"/>
<text text-anchor="middle" x="181" y="-192.6" font-family="Times,serif" font-size="14.00">TwitterService </text>
</g>
<!-- UserService  -->
<g id="node5" class="node">
<title>UserService </title>
<polygon fill="#fb8072" stroke="black" points="111.9,-214.8 24.1,-214.8 24.1,-178.8 111.9,-178.8 111.9,-214.8"/>
<text text-anchor="middle" x="68" y="-192.6" font-family="Times,serif" font-size="14.00">UserService </text>
</g>
<!-- SharedModule -->
<g id="node6" class="node">
<title>SharedModule</title>
<polygon fill="#8dd3c7" stroke="black" points="350.42,-149.8 347.42,-153.8 326.42,-153.8 323.42,-149.8 251.58,-149.8 251.58,-113.8 350.42,-113.8 350.42,-149.8"/>
<text text-anchor="middle" x="301" y="-127.6" font-family="Times,serif" font-size="14.00">SharedModule</text>
</g>
<!-- SharedModule&#45;&gt;DiscordCommandProvider  -->
<g id="edge1" class="edge">
<title>SharedModule&#45;&gt;DiscordCommandProvider </title>
<path fill="none" stroke="black" stroke-dasharray="5,2" d="M350.33,-131.8C433.29,-131.8 591.77,-131.8 591.77,-131.8 591.77,-131.8 591.77,-168.69 591.77,-168.69"/>
<polygon fill="black" stroke="black" points="588.28,-168.69 591.77,-178.69 595.28,-168.69 588.28,-168.69"/>
</g>
<!-- SharedModule&#45;&gt;HaloDotApiService  -->
<g id="edge2" class="edge">
<title>SharedModule&#45;&gt;HaloDotApiService </title>
<path fill="none" stroke="black" stroke-dasharray="5,2" d="M350.53,-140.8C383.29,-140.8 420.24,-140.8 420.24,-140.8 420.24,-140.8 420.24,-168.77 420.24,-168.77"/>
<polygon fill="black" stroke="black" points="416.74,-168.77 420.24,-178.77 423.74,-168.77 416.74,-168.77"/>
</g>
<!-- SharedModule&#45;&gt;PrismaService  -->
<g id="edge3" class="edge">
<title>SharedModule&#45;&gt;PrismaService </title>
<path fill="none" stroke="black" stroke-dasharray="5,2" d="M301,-149.91C301,-149.91 301,-168.79 301,-168.79"/>
<polygon fill="black" stroke="black" points="297.5,-168.79 301,-178.79 304.5,-168.79 297.5,-168.79"/>
</g>
<!-- SharedModule&#45;&gt;TwitterService  -->
<g id="edge4" class="edge">
<title>SharedModule&#45;&gt;TwitterService </title>
<path fill="none" stroke="black" stroke-dasharray="5,2" d="M251.77,-140.8C229.23,-140.8 207.46,-140.8 207.46,-140.8 207.46,-140.8 207.46,-168.77 207.46,-168.77"/>
<polygon fill="black" stroke="black" points="203.96,-168.77 207.46,-178.77 210.96,-168.77 203.96,-168.77"/>
</g>
<!-- SharedModule&#45;&gt;UserService  -->
<g id="edge5" class="edge">
<title>SharedModule&#45;&gt;UserService </title>
<path fill="none" stroke="black" stroke-dasharray="5,2" d="M251.65,-131.8C186.48,-131.8 79.87,-131.8 79.87,-131.8 79.87,-131.8 79.87,-168.69 79.87,-168.69"/>
<polygon fill="black" stroke="black" points="76.37,-168.69 79.87,-178.69 83.37,-168.69 76.37,-168.69"/>
</g>
<!-- HaloDotApiService -->
<g id="node7" class="node">
<title>HaloDotApiService</title>
<ellipse fill="#fdb462" stroke="black" cx="577" cy="-66.8" rx="87.96" ry="18"/>
<text text-anchor="middle" x="577" y="-62.6" font-family="Times,serif" font-size="14.00">HaloDotApiService</text>
</g>
<!-- HaloDotApiService&#45;&gt;SharedModule -->
<g id="edge6" class="edge">
<title>HaloDotApiService&#45;&gt;SharedModule</title>
<path fill="none" stroke="black" d="M494.81,-73.22C494.81,-87.93 494.81,-122.8 494.81,-122.8 494.81,-122.8 360.41,-122.8 360.41,-122.8"/>
<polygon fill="black" stroke="black" points="360.41,-119.3 350.41,-122.8 360.41,-126.3 360.41,-119.3"/>
</g>
<!-- PrismaService -->
<g id="node8" class="node">
<title>PrismaService</title>
<ellipse fill="#fdb462" stroke="black" cx="404" cy="-66.8" rx="66.63" ry="18"/>
<text text-anchor="middle" x="404" y="-62.6" font-family="Times,serif" font-size="14.00">PrismaService</text>
</g>
<!-- PrismaService&#45;&gt;SharedModule -->
<g id="edge7" class="edge">
<title>PrismaService&#45;&gt;SharedModule</title>
<path fill="none" stroke="black" d="M343.7,-74.77C343.7,-74.77 343.7,-103.67 343.7,-103.67"/>
<polygon fill="black" stroke="black" points="340.2,-103.67 343.7,-113.67 347.2,-103.67 340.2,-103.67"/>
</g>
<!-- TwitterService -->
<g id="node9" class="node">
<title>TwitterService</title>
<ellipse fill="#fdb462" stroke="black" cx="251" cy="-66.8" rx="68.33" ry="18"/>
<text text-anchor="middle" x="251" y="-62.6" font-family="Times,serif" font-size="14.00">TwitterService</text>
</g>
<!-- TwitterService&#45;&gt;SharedModule -->
<g id="edge8" class="edge">
<title>TwitterService&#45;&gt;SharedModule</title>
<path fill="none" stroke="black" d="M285.6,-82.53C285.6,-82.53 285.6,-103.45 285.6,-103.45"/>
<polygon fill="black" stroke="black" points="282.1,-103.45 285.6,-113.45 289.1,-103.45 282.1,-103.45"/>
</g>
<!-- UserService -->
<g id="node10" class="node">
<title>UserService</title>
<ellipse fill="#fdb462" stroke="black" cx="106" cy="-66.8" rx="58.44" ry="18"/>
<text text-anchor="middle" x="106" y="-62.6" font-family="Times,serif" font-size="14.00">UserService</text>
</g>
<!-- UserService&#45;&gt;SharedModule -->
<g id="edge9" class="edge">
<title>UserService&#45;&gt;SharedModule</title>
<path fill="none" stroke="black" d="M146.94,-79.79C146.94,-96.33 146.94,-122.8 146.94,-122.8 146.94,-122.8 241.41,-122.8 241.41,-122.8"/>
<polygon fill="black" stroke="black" points="241.41,-126.3 251.41,-122.8 241.41,-119.3 241.41,-126.3"/>
</g>
</g>
</svg>
