<?xml version="1.0" encoding="UTF-8" standalone="no"?>
<!DOCTYPE svg PUBLIC "-//W3C//DTD SVG 1.1//EN"
 "http://www.w3.org/Graphics/SVG/1.1/DTD/svg11.dtd">
<!-- Generated by graphviz version 2.47.3 (20210619.1520)
 -->
<!-- Title: dependencies Pages: 1 -->
<svg width="512pt" height="174pt"
 viewBox="0.00 0.00 512.00 173.80" xmlns="http://www.w3.org/2000/svg" xmlns:xlink="http://www.w3.org/1999/xlink">
<g id="graph0" class="graph" transform="scale(1 1) rotate(0) translate(4 169.8)">
<title>dependencies</title>
<polygon fill="white" stroke="transparent" points="-4,4 -4,-169.8 508,-169.8 508,4 -4,4"/>
<text text-anchor="middle" x="252" y="-8.2" font-family="sans-serif" font-size="14.00">dependencies</text>
<g id="clust1" class="cluster">
<title>cluster_AppModule</title>
<polygon fill="none" stroke="black" stroke-dasharray="1,5" points="8,-32.8 8,-157.8 496,-157.8 496,-32.8 8,-32.8"/>
</g>
<g id="clust3" class="cluster">
<title>cluster_AppModule_imports</title>
<polygon fill="none" stroke="black" points="210,-40.8 210,-92.8 488,-92.8 488,-40.8 210,-40.8"/>
</g>
<g id="clust6" class="cluster">
<title>cluster_AppModule_providers</title>
<polygon fill="none" stroke="black" points="16,-40.8 16,-92.8 202,-92.8 202,-40.8 16,-40.8"/>
</g>
<!-- Oauth2DiscordModule -->
<g id="node1" class="node">
<title>Oauth2DiscordModule</title>
<polygon fill="#8dd3c7" stroke="black" points="479.58,-84.8 476.58,-88.8 455.58,-88.8 452.58,-84.8 334.42,-84.8 334.42,-48.8 479.58,-48.8 479.58,-84.8"/>
<text text-anchor="middle" x="407" y="-62.6" font-family="Times,serif" font-size="14.00">Oauth2DiscordModule</text>
</g>
<!-- AppModule -->
<g id="node3" class="node">
<title>AppModule</title>
<polygon fill="#8dd3c7" stroke="black" points="308.66,-149.8 305.66,-153.8 284.66,-153.8 281.66,-149.8 225.34,-149.8 225.34,-113.8 308.66,-113.8 308.66,-149.8"/>
<text text-anchor="middle" x="267" y="-127.6" font-family="Times,serif" font-size="14.00">AppModule</text>
</g>
<!-- Oauth2DiscordModule&#45;&gt;AppModule -->
<g id="edge1" class="edge">
<title>Oauth2DiscordModule&#45;&gt;AppModule</title>
<path fill="none" stroke="black" d="M407,-84.91C407,-104.14 407,-131.8 407,-131.8 407,-131.8 319,-131.8 319,-131.8"/>
<polygon fill="black" stroke="black" points="319,-128.3 309,-131.8 319,-135.3 319,-128.3"/>
</g>
<!-- SharedModule -->
<g id="node2" class="node">
<title>SharedModule</title>
<polygon fill="#8dd3c7" stroke="black" points="316.42,-84.8 313.42,-88.8 292.42,-88.8 289.42,-84.8 217.58,-84.8 217.58,-48.8 316.42,-48.8 316.42,-84.8"/>
<text text-anchor="middle" x="267" y="-62.6" font-family="Times,serif" font-size="14.00">SharedModule</text>
</g>
<!-- SharedModule&#45;&gt;AppModule -->
<g id="edge2" class="edge">
<title>SharedModule&#45;&gt;AppModule</title>
<path fill="none" stroke="black" d="M267,-84.91C267,-84.91 267,-103.79 267,-103.79"/>
<polygon fill="black" stroke="black" points="263.5,-103.79 267,-113.79 270.5,-103.79 263.5,-103.79"/>
</g>
<!-- DiscordApiService -->
<g id="node4" class="node">
<title>DiscordApiService</title>
<ellipse fill="#fdb462" stroke="black" cx="109" cy="-66.8" rx="85.09" ry="18"/>
<text text-anchor="middle" x="109" y="-62.6" font-family="Times,serif" font-size="14.00">DiscordApiService</text>
</g>
<!-- DiscordApiService&#45;&gt;AppModule -->
<g id="edge3" class="edge">
<title>DiscordApiService&#45;&gt;AppModule</title>
<path fill="none" stroke="black" d="M109,-84.91C109,-104.14 109,-131.8 109,-131.8 109,-131.8 215.07,-131.8 215.07,-131.8"/>
<polygon fill="black" stroke="black" points="215.07,-135.3 225.07,-131.8 215.07,-128.3 215.07,-135.3"/>
</g>
</g>
</svg>
