<?xml version="1.0" encoding="UTF-8" standalone="no"?>
<!DOCTYPE svg PUBLIC "-//W3C//DTD SVG 1.1//EN"
 "http://www.w3.org/Graphics/SVG/1.1/DTD/svg11.dtd">
<!-- Generated by graphviz version 2.47.3 (20210619.1520)
 -->
<!-- Title: dependencies Pages: 1 -->
<svg width="790pt" height="174pt"
 viewBox="0.00 0.00 790.00 173.80" xmlns="http://www.w3.org/2000/svg" xmlns:xlink="http://www.w3.org/1999/xlink">
<g id="graph0" class="graph" transform="scale(1 1) rotate(0) translate(4 169.8)">
<title>dependencies</title>
<polygon fill="white" stroke="transparent" points="-4,4 -4,-169.8 786,-169.8 786,4 -4,4"/>
<text text-anchor="middle" x="391" y="-8.2" font-family="sans-serif" font-size="14.00">dependencies</text>
<g id="clust1" class="cluster">
<title>cluster_AppModule</title>
<polygon fill="none" stroke="black" stroke-dasharray="1,5" points="8,-32.8 8,-157.8 774,-157.8 774,-32.8 8,-32.8"/>
</g>
<g id="clust3" class="cluster">
<title>cluster_AppModule_imports</title>
<polygon fill="none" stroke="black" points="342,-40.8 342,-92.8 766,-92.8 766,-40.8 342,-40.8"/>
</g>
<g id="clust6" class="cluster">
<title>cluster_AppModule_providers</title>
<polygon fill="none" stroke="black" points="16,-40.8 16,-92.8 334,-92.8 334,-40.8 16,-40.8"/>
</g>
<!-- HaloDotApiModule -->
<g id="node1" class="node">
<title>HaloDotApiModule</title>
<polygon fill="#8dd3c7" stroke="black" points="758.26,-84.8 755.26,-88.8 734.26,-88.8 731.26,-84.8 629.74,-84.8 629.74,-48.8 758.26,-48.8 758.26,-84.8"/>
<text text-anchor="middle" x="694" y="-62.6" font-family="Times,serif" font-size="14.00">HaloDotApiModule</text>
</g>
<!-- AppModule -->
<g id="node4" class="node">
<title>AppModule</title>
<polygon fill="#8dd3c7" stroke="black" points="440.66,-149.8 437.66,-153.8 416.66,-153.8 413.66,-149.8 357.34,-149.8 357.34,-113.8 440.66,-113.8 440.66,-149.8"/>
<text text-anchor="middle" x="399" y="-127.6" font-family="Times,serif" font-size="14.00">AppModule</text>
</g>
<!-- HaloDotApiModule&#45;&gt;AppModule -->
<g id="edge1" class="edge">
<title>HaloDotApiModule&#45;&gt;AppModule</title>
<path fill="none" stroke="black" d="M694,-85.08C694,-106.12 694,-137.8 694,-137.8 694,-137.8 450.95,-137.8 450.95,-137.8"/>
<polygon fill="black" stroke="black" points="450.95,-134.3 440.95,-137.8 450.95,-141.3 450.95,-134.3"/>
</g>
<!-- Oauth2DiscordModule -->
<g id="node2" class="node">
<title>Oauth2DiscordModule</title>
<polygon fill="#8dd3c7" stroke="black" points="611.58,-84.8 608.58,-88.8 587.58,-88.8 584.58,-84.8 466.42,-84.8 466.42,-48.8 611.58,-48.8 611.58,-84.8"/>
<text text-anchor="middle" x="539" y="-62.6" font-family="Times,serif" font-size="14.00">Oauth2DiscordModule</text>
</g>
<!-- Oauth2DiscordModule&#45;&gt;AppModule -->
<g id="edge2" class="edge">
<title>Oauth2DiscordModule&#45;&gt;AppModule</title>
<path fill="none" stroke="black" d="M539,-84.82C539,-102.17 539,-125.8 539,-125.8 539,-125.8 451,-125.8 451,-125.8"/>
<polygon fill="black" stroke="black" points="451,-122.3 441,-125.8 451,-129.3 451,-122.3"/>
</g>
<!-- SharedModule -->
<g id="node3" class="node">
<title>SharedModule</title>
<polygon fill="#8dd3c7" stroke="black" points="448.42,-84.8 445.42,-88.8 424.42,-88.8 421.42,-84.8 349.58,-84.8 349.58,-48.8 448.42,-48.8 448.42,-84.8"/>
<text text-anchor="middle" x="399" y="-62.6" font-family="Times,serif" font-size="14.00">SharedModule</text>
</g>
<!-- SharedModule&#45;&gt;AppModule -->
<g id="edge3" class="edge">
<title>SharedModule&#45;&gt;AppModule</title>
<path fill="none" stroke="black" d="M399,-84.91C399,-84.91 399,-103.79 399,-103.79"/>
<polygon fill="black" stroke="black" points="395.5,-103.79 399,-113.79 402.5,-103.79 395.5,-103.79"/>
</g>
<!-- AppService -->
<g id="node5" class="node">
<title>AppService</title>
<ellipse fill="#fdb462" stroke="black" cx="269" cy="-66.8" rx="56.74" ry="18"/>
<text text-anchor="middle" x="269" y="-62.6" font-family="Times,serif" font-size="14.00">AppService</text>
</g>
<!-- AppService&#45;&gt;AppModule -->
<g id="edge4" class="edge">
<title>AppService&#45;&gt;AppModule</title>
<path fill="none" stroke="black" d="M269,-84.82C269,-102.17 269,-125.8 269,-125.8 269,-125.8 347.15,-125.8 347.15,-125.8"/>
<polygon fill="black" stroke="black" points="347.15,-129.3 357.15,-125.8 347.15,-122.3 347.15,-129.3"/>
</g>
<!-- DiscordApiService -->
<g id="node6" class="node">
<title>DiscordApiService</title>
<ellipse fill="#fdb462" stroke="black" cx="109" cy="-66.8" rx="85.09" ry="18"/>
<text text-anchor="middle" x="109" y="-62.6" font-family="Times,serif" font-size="14.00">DiscordApiService</text>
</g>
<!-- DiscordApiService&#45;&gt;AppModule -->
<g id="edge5" class="edge">
<title>DiscordApiService&#45;&gt;AppModule</title>
<path fill="none" stroke="black" d="M109,-85.08C109,-106.12 109,-137.8 109,-137.8 109,-137.8 347.14,-137.8 347.14,-137.8"/>
<polygon fill="black" stroke="black" points="347.14,-141.3 357.14,-137.8 347.14,-134.3 347.14,-141.3"/>
</g>
</g>
</svg>
