<?xml version="1.0" encoding="UTF-8" standalone="no"?>
<!DOCTYPE svg PUBLIC "-//W3C//DTD SVG 1.1//EN"
 "http://www.w3.org/Graphics/SVG/1.1/DTD/svg11.dtd">
<!-- Generated by graphviz version 2.47.3 (20210619.1520)
 -->
<!-- Title: dependencies Pages: 1 -->
<svg width="1796pt" height="315pt"
 viewBox="0.00 0.00 1796.00 314.80" xmlns="http://www.w3.org/2000/svg" xmlns:xlink="http://www.w3.org/1999/xlink">
<g id="graph0" class="graph" transform="scale(1 1) rotate(0) translate(4 310.8)">
<title>dependencies</title>
<polygon fill="white" stroke="transparent" points="-4,4 -4,-310.8 1792,-310.8 1792,4 -4,4"/>
<text text-anchor="middle" x="894" y="-8.2" font-family="sans-serif" font-size="14.00">dependencies</text>
<g id="clust1" class="cluster">
<title>cluster_AppModule</title>
<polygon fill="none" stroke="black" stroke-dasharray="1,5" points="8,-108.8 8,-298.8 628,-298.8 628,-108.8 8,-108.8"/>
</g>
<g id="clust3" class="cluster">
<title>cluster_AppModule_imports</title>
<polygon fill="none" stroke="black" points="342,-116.8 342,-233.8 620,-233.8 620,-116.8 342,-116.8"/>
</g>
<g id="clust6" class="cluster">
<title>cluster_AppModule_providers</title>
<polygon fill="none" stroke="black" points="16,-181.8 16,-233.8 334,-233.8 334,-181.8 16,-181.8"/>
</g>
<g id="clust7" class="cluster">
<title>cluster_HaloDotApiModule</title>
<polygon fill="none" stroke="black" stroke-dasharray="1,5" points="338,-32.8 338,-100.8 546,-100.8 546,-32.8 338,-32.8"/>
</g>
<g id="clust12" class="cluster">
<title>cluster_HaloDotApiModule_providers</title>
<polygon fill="none" stroke="black" points="346,-40.8 346,-92.8 538,-92.8 538,-40.8 346,-40.8"/>
</g>
<g id="clust19" class="cluster">
<title>cluster_SharedModule</title>
<polygon fill="none" stroke="black" stroke-dasharray="1,5" points="636,-173.8 636,-241.8 1780,-241.8 1780,-173.8 636,-173.8"/>
</g>
<g id="clust22" class="cluster">
<title>cluster_SharedModule_exports</title>
<polygon fill="none" stroke="black" points="1091,-181.8 1091,-233.8 1772,-233.8 1772,-181.8 1091,-181.8"/>
</g>
<g id="clust24" class="cluster">
<title>cluster_SharedModule_providers</title>
<polygon fill="none" stroke="black" points="644,-181.8 644,-233.8 1083,-233.8 1083,-181.8 644,-181.8"/>
</g>
<!-- HaloDotApiModule -->
<g id="node1" class="node">
<title>HaloDotApiModule</title>
<polygon fill="#8dd3c7" stroke="black" points="478.26,-225.8 475.26,-229.8 454.26,-229.8 451.26,-225.8 349.74,-225.8 349.74,-189.8 478.26,-189.8 478.26,-225.8"/>
<text text-anchor="middle" x="414" y="-203.6" font-family="Times,serif" font-size="14.00">HaloDotApiModule</text>
</g>
<!-- HaloDotApiModule&#45;&gt;HaloDotApiModule -->
<g id="edge6" class="edge">
<title>HaloDotApiModule&#45;&gt;HaloDotApiModule</title>
<path fill="none" stroke="black" d="M414.42,-189.56C414.42,-182.37 414.42,-175.8 414.42,-175.8 414.42,-175.8 484.1,-175.8 484.1,-175.8 484.1,-175.8 484.1,-240.8 484.1,-240.8 484.1,-240.8 467.1,-240.8 467.1,-240.8 467.1,-240.8 467.1,-235.84 467.1,-235.84"/>
<polygon fill="black" stroke="black" points="470.6,-235.84 467.1,-225.84 463.6,-235.84 470.6,-235.84"/>
</g>
<!-- AppModule -->
<g id="node4" class="node">
<title>AppModule</title>
<polygon fill="#8dd3c7" stroke="black" points="455.66,-290.8 452.66,-294.8 431.66,-294.8 428.66,-290.8 372.34,-290.8 372.34,-254.8 455.66,-254.8 455.66,-290.8"/>
<text text-anchor="middle" x="414" y="-268.6" font-family="Times,serif" font-size="14.00">AppModule</text>
</g>
<!-- HaloDotApiModule&#45;&gt;AppModule -->
<g id="edge1" class="edge">
<title>HaloDotApiModule&#45;&gt;AppModule</title>
<path fill="none" stroke="black" d="M414,-225.91C414,-225.91 414,-244.79 414,-244.79"/>
<polygon fill="black" stroke="black" points="410.5,-244.79 414,-254.79 417.5,-244.79 410.5,-244.79"/>
</g>
<!-- Oauth2DiscordModule -->
<g id="node2" class="node">
<title>Oauth2DiscordModule</title>
<polygon fill="#8dd3c7" stroke="black" points="495.58,-160.8 492.58,-164.8 471.58,-164.8 468.58,-160.8 350.42,-160.8 350.42,-124.8 495.58,-124.8 495.58,-160.8"/>
<text text-anchor="middle" x="423" y="-138.6" font-family="Times,serif" font-size="14.00">Oauth2DiscordModule</text>
</g>
<!-- Oauth2DiscordModule&#45;&gt;AppModule -->
<g id="edge2" class="edge">
<title>Oauth2DiscordModule&#45;&gt;AppModule</title>
<path fill="none" stroke="black" d="M489.82,-160.83C489.82,-195.22 489.82,-266.8 489.82,-266.8 489.82,-266.8 465.9,-266.8 465.9,-266.8"/>
<polygon fill="black" stroke="black" points="465.9,-263.3 455.9,-266.8 465.9,-270.3 465.9,-263.3"/>
</g>
<!-- SharedModule -->
<g id="node3" class="node">
<title>SharedModule</title>
<polygon fill="#8dd3c7" stroke="black" points="612.42,-160.8 609.42,-164.8 588.42,-164.8 585.42,-160.8 513.58,-160.8 513.58,-124.8 612.42,-124.8 612.42,-160.8"/>
<text text-anchor="middle" x="563" y="-138.6" font-family="Times,serif" font-size="14.00">SharedModule</text>
</g>
<!-- SharedModule&#45;&gt;HaloDotApiModule -->
<g id="edge7" class="edge">
<title>SharedModule&#45;&gt;HaloDotApiModule</title>
<path fill="none" stroke="black" d="M538.39,-161.09C538.39,-183.01 538.39,-216.8 538.39,-216.8 538.39,-216.8 488.38,-216.8 488.38,-216.8"/>
<polygon fill="black" stroke="black" points="488.38,-213.3 478.38,-216.8 488.38,-220.3 488.38,-213.3"/>
</g>
<!-- SharedModule&#45;&gt;AppModule -->
<g id="edge3" class="edge">
<title>SharedModule&#45;&gt;AppModule</title>
<path fill="none" stroke="black" d="M563,-160.86C563,-197.85 563,-278.8 563,-278.8 563,-278.8 465.9,-278.8 465.9,-278.8"/>
<polygon fill="black" stroke="black" points="465.9,-275.3 455.9,-278.8 465.9,-282.3 465.9,-275.3"/>
</g>
<!-- DiscordCommandProvider  -->
<g id="node8" class="node">
<title>DiscordCommandProvider </title>
<polygon fill="#fb8072" stroke="black" points="1658.36,-225.8 1487.64,-225.8 1487.64,-189.8 1658.36,-189.8 1658.36,-225.8"/>
<text text-anchor="middle" x="1573" y="-203.6" font-family="Times,serif" font-size="14.00">DiscordCommandProvider </text>
</g>
<!-- SharedModule&#45;&gt;DiscordCommandProvider  -->
<g id="edge9" class="edge">
<title>SharedModule&#45;&gt;DiscordCommandProvider </title>
<path fill="none" stroke="black" stroke-dasharray="5,2" d="M612.4,-133.8C815.18,-133.8 1573,-133.8 1573,-133.8 1573,-133.8 1573,-179.51 1573,-179.51"/>
<polygon fill="black" stroke="black" points="1569.5,-179.51 1573,-189.51 1576.5,-179.51 1569.5,-179.51"/>
</g>
<!-- HaloDotApiService  -->
<g id="node9" class="node">
<title>HaloDotApiService </title>
<polygon fill="#fb8072" stroke="black" points="1469.18,-225.8 1338.82,-225.8 1338.82,-189.8 1469.18,-189.8 1469.18,-225.8"/>
<text text-anchor="middle" x="1404" y="-203.6" font-family="Times,serif" font-size="14.00">HaloDotApiService </text>
</g>
<!-- SharedModule&#45;&gt;HaloDotApiService  -->
<g id="edge10" class="edge">
<title>SharedModule&#45;&gt;HaloDotApiService </title>
<path fill="none" stroke="black" stroke-dasharray="5,2" d="M612.47,-138.8C792.74,-138.8 1404,-138.8 1404,-138.8 1404,-138.8 1404,-179.67 1404,-179.67"/>
<polygon fill="black" stroke="black" points="1400.5,-179.67 1404,-189.67 1407.5,-179.67 1400.5,-179.67"/>
</g>
<!-- PrismaService  -->
<g id="node10" class="node">
<title>PrismaService </title>
<polygon fill="#fb8072" stroke="black" points="1320.36,-225.8 1219.64,-225.8 1219.64,-189.8 1320.36,-189.8 1320.36,-225.8"/>
<text text-anchor="middle" x="1270" y="-203.6" font-family="Times,serif" font-size="14.00">PrismaService </text>
</g>
<!-- SharedModule&#45;&gt;PrismaService  -->
<g id="edge11" class="edge">
<title>SharedModule&#45;&gt;PrismaService </title>
<path fill="none" stroke="black" stroke-dasharray="5,2" d="M612.43,-142.8C773.06,-142.8 1270,-142.8 1270,-142.8 1270,-142.8 1270,-179.69 1270,-179.69"/>
<polygon fill="black" stroke="black" points="1266.5,-179.69 1270,-189.69 1273.5,-179.69 1266.5,-179.69"/>
</g>
<!-- TwitterService  -->
<g id="node11" class="node">
<title>TwitterService </title>
<polygon fill="#fb8072" stroke="black" points="1201.18,-225.8 1098.82,-225.8 1098.82,-189.8 1201.18,-189.8 1201.18,-225.8"/>
<text text-anchor="middle" x="1150" y="-203.6" font-family="Times,serif" font-size="14.00">TwitterService </text>
</g>
<!-- SharedModule&#45;&gt;TwitterService  -->
<g id="edge12" class="edge">
<title>SharedModule&#45;&gt;TwitterService </title>
<path fill="none" stroke="black" stroke-dasharray="5,2" d="M612.29,-147.8C753.59,-147.8 1150,-147.8 1150,-147.8 1150,-147.8 1150,-179.8 1150,-179.8"/>
<polygon fill="black" stroke="black" points="1146.5,-179.8 1150,-189.8 1153.5,-179.8 1146.5,-179.8"/>
</g>
<!-- UserService  -->
<g id="node12" class="node">
<title>UserService </title>
<polygon fill="#fb8072" stroke="black" points="1763.9,-225.8 1676.1,-225.8 1676.1,-189.8 1763.9,-189.8 1763.9,-225.8"/>
<text text-anchor="middle" x="1720" y="-203.6" font-family="Times,serif" font-size="14.00">UserService </text>
</g>
<!-- SharedModule&#45;&gt;UserService  -->
<g id="edge13" class="edge">
<title>SharedModule&#45;&gt;UserService </title>
<path fill="none" stroke="black" stroke-dasharray="5,2" d="M612.34,-129.8C833.18,-129.8 1720,-129.8 1720,-129.8 1720,-129.8 1720,-179.71 1720,-179.71"/>
<polygon fill="black" stroke="black" points="1716.5,-179.71 1720,-189.71 1723.5,-179.71 1716.5,-179.71"/>
</g>
<!-- AppService -->
<g id="node5" class="node">
<title>AppService</title>
<ellipse fill="#fdb462" stroke="black" cx="269" cy="-207.8" rx="56.74" ry="18"/>
<text text-anchor="middle" x="269" y="-203.6" font-family="Times,serif" font-size="14.00">AppService</text>
</g>
<!-- AppService&#45;&gt;AppModule -->
<g id="edge4" class="edge">
<title>AppService&#45;&gt;AppModule</title>
<path fill="none" stroke="black" d="M269,-225.82C269,-243.17 269,-266.8 269,-266.8 269,-266.8 362.06,-266.8 362.06,-266.8"/>
<polygon fill="black" stroke="black" points="362.06,-270.3 372.06,-266.8 362.06,-263.3 362.06,-270.3"/>
</g>
<!-- DiscordApiService -->
<g id="node6" class="node">
<title>DiscordApiService</title>
<ellipse fill="#fdb462" stroke="black" cx="109" cy="-207.8" rx="85.09" ry="18"/>
<text text-anchor="middle" x="109" y="-203.6" font-family="Times,serif" font-size="14.00">DiscordApiService</text>
</g>
<!-- DiscordApiService&#45;&gt;AppModule -->
<g id="edge5" class="edge">
<title>DiscordApiService&#45;&gt;AppModule</title>
<path fill="none" stroke="black" d="M109,-226.08C109,-247.12 109,-278.8 109,-278.8 109,-278.8 362.23,-278.8 362.23,-278.8"/>
<polygon fill="black" stroke="black" points="362.23,-282.3 372.23,-278.8 362.23,-275.3 362.23,-282.3"/>
</g>
<!-- HaloDotApiService -->
<g id="node7" class="node">
<title>HaloDotApiService</title>
<ellipse fill="#fdb462" stroke="black" cx="442" cy="-66.8" rx="87.96" ry="18"/>
<text text-anchor="middle" x="442" y="-62.6" font-family="Times,serif" font-size="14.00">HaloDotApiService</text>
</g>
<!-- HaloDotApiService&#45;&gt;HaloDotApiModule -->
<g id="edge8" class="edge">
<title>HaloDotApiService&#45;&gt;HaloDotApiModule</title>
<path fill="none" stroke="black" d="M504.66,-79.81C504.66,-114.72 504.66,-207.8 504.66,-207.8 504.66,-207.8 488.44,-207.8 488.44,-207.8"/>
<polygon fill="black" stroke="black" points="488.44,-204.3 478.44,-207.8 488.44,-211.3 488.44,-204.3"/>
</g>
<!-- HaloDotApiService&#45;&gt;SharedModule -->
<g id="edge14" class="edge">
<title>HaloDotApiService&#45;&gt;SharedModule</title>
<path fill="none" stroke="black" d="M521.76,-74.37C521.76,-74.37 521.76,-114.68 521.76,-114.68"/>
<polygon fill="black" stroke="black" points="518.26,-114.68 521.76,-124.68 525.26,-114.68 518.26,-114.68"/>
</g>
<!-- PrismaService -->
<g id="node13" class="node">
<title>PrismaService</title>
<ellipse fill="#fdb462" stroke="black" cx="719" cy="-207.8" rx="66.63" ry="18"/>
<text text-anchor="middle" x="719" y="-203.6" font-family="Times,serif" font-size="14.00">PrismaService</text>
</g>
<!-- PrismaService&#45;&gt;SharedModule -->
<g id="edge15" class="edge">
<title>PrismaService&#45;&gt;SharedModule</title>
<path fill="none" stroke="black" d="M660.99,-198.8C625.79,-198.8 587.61,-198.8 587.61,-198.8 587.61,-198.8 587.61,-170.83 587.61,-170.83"/>
<polygon fill="black" stroke="black" points="591.11,-170.83 587.61,-160.83 584.11,-170.83 591.11,-170.83"/>
</g>
<!-- TwitterService -->
<g id="node14" class="node">
<title>TwitterService</title>
<ellipse fill="#fdb462" stroke="black" cx="1007" cy="-207.8" rx="68.33" ry="18"/>
<text text-anchor="middle" x="1007" y="-203.6" font-family="Times,serif" font-size="14.00">TwitterService</text>
</g>
<!-- TwitterService&#45;&gt;SharedModule -->
<g id="edge16" class="edge">
<title>TwitterService&#45;&gt;SharedModule</title>
<path fill="none" stroke="black" d="M1007,-189.77C1007,-173.4 1007,-151.8 1007,-151.8 1007,-151.8 622.21,-151.8 622.21,-151.8"/>
<polygon fill="black" stroke="black" points="622.21,-148.3 612.21,-151.8 622.21,-155.3 622.21,-148.3"/>
</g>
<!-- UserService -->
<g id="node15" class="node">
<title>UserService</title>
<ellipse fill="#fdb462" stroke="black" cx="862" cy="-207.8" rx="58.44" ry="18"/>
<text text-anchor="middle" x="862" y="-203.6" font-family="Times,serif" font-size="14.00">UserService</text>
</g>
<!-- UserService&#45;&gt;SharedModule -->
<g id="edge17" class="edge">
<title>UserService&#45;&gt;SharedModule</title>
<path fill="none" stroke="black" d="M862,-189.68C862,-175.02 862,-156.8 862,-156.8 862,-156.8 622.37,-156.8 622.37,-156.8"/>
<polygon fill="black" stroke="black" points="622.37,-153.3 612.37,-156.8 622.37,-160.3 622.37,-153.3"/>
</g>
</g>
</svg>
