<?xml version="1.0" encoding="UTF-8" standalone="no"?>
<!DOCTYPE svg PUBLIC "-//W3C//DTD SVG 1.1//EN"
 "http://www.w3.org/Graphics/SVG/1.1/DTD/svg11.dtd">
<!-- Generated by graphviz version 2.47.3 (20210619.1520)
 -->
<!-- Title: dependencies Pages: 1 -->
<svg width="1858pt" height="185pt"
 viewBox="0.00 0.00 1858.00 184.80" xmlns="http://www.w3.org/2000/svg" xmlns:xlink="http://www.w3.org/1999/xlink">
<g id="graph0" class="graph" transform="scale(1 1) rotate(0) translate(4 180.8)">
<title>dependencies</title>
<polygon fill="white" stroke="transparent" points="-4,4 -4,-180.8 1854,-180.8 1854,4 -4,4"/>
<text text-anchor="middle" x="925" y="-8.2" font-family="sans-serif" font-size="14.00">dependencies</text>
<g id="clust1" class="cluster">
<title>cluster_AppModule</title>
<polygon fill="none" stroke="black" stroke-dasharray="1,5" points="8,-32.8 8,-160.8 496,-160.8 496,-32.8 8,-32.8"/>
</g>
<g id="clust3" class="cluster">
<title>cluster_AppModule_imports</title>
<polygon fill="none" stroke="black" points="210,-40.8 210,-92.8 488,-92.8 488,-40.8 210,-40.8"/>
</g>
<g id="clust6" class="cluster">
<title>cluster_AppModule_providers</title>
<polygon fill="none" stroke="black" points="16,-40.8 16,-92.8 202,-92.8 202,-40.8 16,-40.8"/>
</g>
<g id="clust13" class="cluster">
<title>cluster_SharedModule</title>
<polygon fill="none" stroke="black" stroke-dasharray="1,5" points="504,-100.8 504,-168.8 1842,-168.8 1842,-100.8 504,-100.8"/>
</g>
<g id="clust16" class="cluster">
<title>cluster_SharedModule_exports</title>
<polygon fill="none" stroke="black" points="1153,-108.8 1153,-160.8 1834,-160.8 1834,-108.8 1153,-108.8"/>
</g>
<g id="clust18" class="cluster">
<title>cluster_SharedModule_providers</title>
<polygon fill="none" stroke="black" points="512,-108.8 512,-160.8 1145,-160.8 1145,-108.8 512,-108.8"/>
</g>
<!-- Oauth2DiscordModule -->
<g id="node1" class="node">
<title>Oauth2DiscordModule</title>
<polygon fill="#8dd3c7" stroke="black" points="363.58,-84.8 360.58,-88.8 339.58,-88.8 336.58,-84.8 218.42,-84.8 218.42,-48.8 363.58,-48.8 363.58,-84.8"/>
<text text-anchor="middle" x="291" y="-62.6" font-family="Times,serif" font-size="14.00">Oauth2DiscordModule</text>
</g>
<!-- AppModule -->
<g id="node3" class="node">
<title>AppModule</title>
<polygon fill="#8dd3c7" stroke="black" points="332.66,-152.8 329.66,-156.8 308.66,-156.8 305.66,-152.8 249.34,-152.8 249.34,-116.8 332.66,-116.8 332.66,-152.8"/>
<text text-anchor="middle" x="291" y="-130.6" font-family="Times,serif" font-size="14.00">AppModule</text>
</g>
<!-- Oauth2DiscordModule&#45;&gt;AppModule -->
<g id="edge1" class="edge">
<title>Oauth2DiscordModule&#45;&gt;AppModule</title>
<path fill="none" stroke="black" d="M291,-85.02C291,-85.02 291,-106.53 291,-106.53"/>
<polygon fill="black" stroke="black" points="287.5,-106.53 291,-116.53 294.5,-106.53 287.5,-106.53"/>
</g>
<!-- SharedModule -->
<g id="node2" class="node">
<title>SharedModule</title>
<polygon fill="#8dd3c7" stroke="black" points="480.42,-84.8 477.42,-88.8 456.42,-88.8 453.42,-84.8 381.58,-84.8 381.58,-48.8 480.42,-48.8 480.42,-84.8"/>
<text text-anchor="middle" x="431" y="-62.6" font-family="Times,serif" font-size="14.00">SharedModule</text>
</g>
<!-- SharedModule&#45;&gt;AppModule -->
<g id="edge2" class="edge">
<title>SharedModule&#45;&gt;AppModule</title>
<path fill="none" stroke="black" d="M414.6,-85.09C414.6,-107.01 414.6,-140.8 414.6,-140.8 414.6,-140.8 342.84,-140.8 342.84,-140.8"/>
<polygon fill="black" stroke="black" points="342.84,-137.3 332.84,-140.8 342.84,-144.3 342.84,-137.3"/>
</g>
<!-- DiscordCommandProvider  -->
<g id="node5" class="node">
<title>DiscordCommandProvider </title>
<polygon fill="#fb8072" stroke="black" points="1826.36,-152.8 1655.64,-152.8 1655.64,-116.8 1826.36,-116.8 1826.36,-152.8"/>
<text text-anchor="middle" x="1741" y="-130.6" font-family="Times,serif" font-size="14.00">DiscordCommandProvider </text>
</g>
<!-- SharedModule&#45;&gt;DiscordCommandProvider  -->
<g id="edge4" class="edge">
<title>SharedModule&#45;&gt;DiscordCommandProvider </title>
<path fill="none" stroke="black" stroke-dasharray="5,2" d="M480.36,-52.8C718.91,-52.8 1741,-52.8 1741,-52.8 1741,-52.8 1741,-106.6 1741,-106.6"/>
<polygon fill="black" stroke="black" points="1737.5,-106.6 1741,-116.6 1744.5,-106.6 1737.5,-106.6"/>
</g>
<!-- HaloDotApiService  -->
<g id="node6" class="node">
<title>HaloDotApiService </title>
<polygon fill="#fb8072" stroke="black" points="1637.18,-152.8 1506.82,-152.8 1506.82,-116.8 1637.18,-116.8 1637.18,-152.8"/>
<text text-anchor="middle" x="1572" y="-130.6" font-family="Times,serif" font-size="14.00">HaloDotApiService </text>
</g>
<!-- SharedModule&#45;&gt;HaloDotApiService  -->
<g id="edge5" class="edge">
<title>SharedModule&#45;&gt;HaloDotApiService </title>
<path fill="none" stroke="black" stroke-dasharray="5,2" d="M480.39,-56.8C699.4,-56.8 1572,-56.8 1572,-56.8 1572,-56.8 1572,-106.71 1572,-106.71"/>
<polygon fill="black" stroke="black" points="1568.5,-106.71 1572,-116.71 1575.5,-106.71 1568.5,-106.71"/>
</g>
<!-- PrismaService  -->
<g id="node7" class="node">
<title>PrismaService </title>
<polygon fill="#fb8072" stroke="black" points="1488.36,-152.8 1387.64,-152.8 1387.64,-116.8 1488.36,-116.8 1488.36,-152.8"/>
<text text-anchor="middle" x="1438" y="-130.6" font-family="Times,serif" font-size="14.00">PrismaService </text>
</g>
<!-- SharedModule&#45;&gt;PrismaService  -->
<g id="edge6" class="edge">
<title>SharedModule&#45;&gt;PrismaService </title>
<path fill="none" stroke="black" stroke-dasharray="5,2" d="M480.25,-60.8C682.43,-60.8 1438,-60.8 1438,-60.8 1438,-60.8 1438,-106.51 1438,-106.51"/>
<polygon fill="black" stroke="black" points="1434.5,-106.51 1438,-116.51 1441.5,-106.51 1434.5,-106.51"/>
</g>
<!-- TwitterService  -->
<g id="node8" class="node">
<title>TwitterService </title>
<polygon fill="#fb8072" stroke="black" points="1369.18,-152.8 1266.82,-152.8 1266.82,-116.8 1369.18,-116.8 1369.18,-152.8"/>
<text text-anchor="middle" x="1318" y="-130.6" font-family="Times,serif" font-size="14.00">TwitterService </text>
</g>
<!-- SharedModule&#45;&gt;TwitterService  -->
<g id="edge7" class="edge">
<title>SharedModule&#45;&gt;TwitterService </title>
<path fill="none" stroke="black" stroke-dasharray="5,2" d="M480.27,-64.8C666.64,-64.8 1318,-64.8 1318,-64.8 1318,-64.8 1318,-106.77 1318,-106.77"/>
<polygon fill="black" stroke="black" points="1314.5,-106.77 1318,-116.77 1321.5,-106.77 1314.5,-106.77"/>
</g>
<!-- UserService  -->
<g id="node9" class="node">
<title>UserService </title>
<polygon fill="#fb8072" stroke="black" points="1248.9,-152.8 1161.1,-152.8 1161.1,-116.8 1248.9,-116.8 1248.9,-152.8"/>
<text text-anchor="middle" x="1205" y="-130.6" font-family="Times,serif" font-size="14.00">UserService </text>
</g>
<!-- SharedModule&#45;&gt;UserService  -->
<g id="edge8" class="edge">
<title>SharedModule&#45;&gt;UserService </title>
<path fill="none" stroke="black" stroke-dasharray="5,2" d="M480.3,-68.8C650.79,-68.8 1205,-68.8 1205,-68.8 1205,-68.8 1205,-106.77 1205,-106.77"/>
<polygon fill="black" stroke="black" points="1201.5,-106.77 1205,-116.77 1208.5,-106.77 1201.5,-106.77"/>
</g>
<!-- DiscordApiService -->
<g id="node4" class="node">
<title>DiscordApiService</title>
<ellipse fill="#fdb462" stroke="black" cx="109" cy="-66.8" rx="85.09" ry="18"/>
<text text-anchor="middle" x="109" y="-62.6" font-family="Times,serif" font-size="14.00">DiscordApiService</text>
</g>
<!-- DiscordApiService&#45;&gt;AppModule -->
<g id="edge3" class="edge">
<title>DiscordApiService&#45;&gt;AppModule</title>
<path fill="none" stroke="black" d="M109,-85.02C109,-105.17 109,-134.8 109,-134.8 109,-134.8 239.25,-134.8 239.25,-134.8"/>
<polygon fill="black" stroke="black" points="239.25,-138.3 249.25,-134.8 239.25,-131.3 239.25,-138.3"/>
</g>
<!-- HaloDotApiService -->
<g id="node10" class="node">
<title>HaloDotApiService</title>
<ellipse fill="#fdb462" stroke="black" cx="1049" cy="-134.8" rx="87.96" ry="18"/>
<text text-anchor="middle" x="1049" y="-130.6" font-family="Times,serif" font-size="14.00">HaloDotApiService</text>
</g>
<!-- HaloDotApiService&#45;&gt;SharedModule -->
<g id="edge9" class="edge">
<title>HaloDotApiService&#45;&gt;SharedModule</title>
<path fill="none" stroke="black" d="M1049,-116.53C1049,-98.24 1049,-72.8 1049,-72.8 1049,-72.8 490.27,-72.8 490.27,-72.8"/>
<polygon fill="black" stroke="black" points="490.27,-69.3 480.27,-72.8 490.27,-76.3 490.27,-69.3"/>
</g>
<!-- PrismaService -->
<g id="node11" class="node">
<title>PrismaService</title>
<ellipse fill="#fdb462" stroke="black" cx="876" cy="-134.8" rx="66.63" ry="18"/>
<text text-anchor="middle" x="876" y="-130.6" font-family="Times,serif" font-size="14.00">PrismaService</text>
</g>
<!-- PrismaService&#45;&gt;SharedModule -->
<g id="edge10" class="edge">
<title>PrismaService&#45;&gt;SharedModule</title>
<path fill="none" stroke="black" d="M876,-116.77C876,-99.74 876,-76.8 876,-76.8 876,-76.8 490.32,-76.8 490.32,-76.8"/>
<polygon fill="black" stroke="black" points="490.32,-73.3 480.32,-76.8 490.32,-80.3 490.32,-73.3"/>
</g>
<!-- TwitterService -->
<g id="node12" class="node">
<title>TwitterService</title>
<ellipse fill="#fdb462" stroke="black" cx="723" cy="-134.8" rx="68.33" ry="18"/>
<text text-anchor="middle" x="723" y="-130.6" font-family="Times,serif" font-size="14.00">TwitterService</text>
</g>
<!-- TwitterService&#45;&gt;SharedModule -->
<g id="edge11" class="edge">
<title>TwitterService&#45;&gt;SharedModule</title>
<path fill="none" stroke="black" d="M723,-116.52C723,-100.85 723,-80.8 723,-80.8 723,-80.8 490.53,-80.8 490.53,-80.8"/>
<polygon fill="black" stroke="black" points="490.53,-77.3 480.53,-80.8 490.53,-84.3 490.53,-77.3"/>
</g>
<!-- UserService -->
<g id="node13" class="node">
<title>UserService</title>
<ellipse fill="#fdb462" stroke="black" cx="578" cy="-134.8" rx="58.44" ry="18"/>
<text text-anchor="middle" x="578" y="-130.6" font-family="Times,serif" font-size="14.00">UserService</text>
</g>
<!-- UserService&#45;&gt;SharedModule -->
<g id="edge12" class="edge">
<title>UserService&#45;&gt;SharedModule</title>
<path fill="none" stroke="black" d="M522.99,-128.8C487.3,-128.8 447.4,-128.8 447.4,-128.8 447.4,-128.8 447.4,-95.07 447.4,-95.07"/>
<polygon fill="black" stroke="black" points="450.9,-95.07 447.4,-85.07 443.9,-95.07 450.9,-95.07"/>
</g>
</g>
</svg>
